<?xml version="1.0" standalone="no"?>
<!DOCTYPE svg PUBLIC "-//W3C//DTD SVG 20010904//EN"
 "http://www.w3.org/TR/2001/REC-SVG-20010904/DTD/svg10.dtd">
<svg version="1.0" xmlns="http://www.w3.org/2000/svg"
 width="1638.000000pt" height="1686.000000pt" viewBox="0 0 1638.000000 1686.000000"
 preserveAspectRatio="xMidYMid meet">

<g transform="translate(0.000000,1686.000000) scale(0.100000,-0.100000)"
fill="#000000" stroke="none">
<path d="M5505 16840 c-1192 -70 -2543 -263 -3530 -505 -963 -235 -1525 -484
-1723 -763 -247 -347 -317 -1680 -182 -3447 22 -287 20 -261 55 -610 96 -951
240 -1787 378 -2195 l32 -95 642 0 c353 1 645 4 649 8 10 9 -21 194 -126 757
-302 1616 -389 2210 -431 2935 -15 251 -6 762 15 933 41 322 119 570 234 739
53 78 166 182 234 215 190 93 1368 376 2113 507 609 108 1249 190 1875 241
612 49 882 61 1566 67 627 6 954 -2 1444 -32 1909 -120 3916 -563 5590 -1233
426 -170 711 -303 1220 -568 342 -178 704 -344 751 -344 6 0 -22 30 -62 67
-41 38 -142 134 -226 215 -172 166 -283 261 -458 391 -737 548 -1958 1183
-3049 1587 -1756 649 -3536 1007 -5556 1115 -335 18 -1240 27 -1455 15z"/>
<path d="M3610 14380 c-418 -50 -711 -146 -972 -319 -356 -236 -544 -568 -565
-1000 -20 -418 130 -776 432 -1029 244 -204 671 -373 1375 -546 465 -114 637
-171 765 -257 197 -132 295 -306 295 -523 -1 -304 -219 -557 -578 -670 -243
-76 -629 -79 -852 -5 -180 59 -355 196 -449 353 -53 88 -168 320 -215 432 -34
84 -105 193 -149 230 -18 15 -61 41 -97 58 -56 26 -79 31 -165 34 -158 6 -248
-29 -343 -133 -102 -111 -133 -223 -114 -404 31 -293 181 -580 437 -836 135
-136 254 -223 410 -300 311 -154 594 -214 1057 -222 532 -10 856 50 1198 222
461 232 728 568 832 1048 29 135 32 461 5 603 -84 451 -342 745 -854 973 -216
97 -508 187 -998 310 -573 143 -784 228 -926 371 -74 75 -111 143 -129 238
-35 175 32 339 192 466 96 77 202 130 328 164 90 25 107 26 350 26 233 1 262
-1 339 -22 263 -70 414 -212 603 -565 164 -306 251 -374 472 -365 130 5 193
33 287 127 106 107 145 219 136 386 -16 278 -158 533 -417 749 -249 208 -541
332 -920 392 -122 19 -646 28 -770 14z"/>
<path d="M7215 14252 c-79 -27 -137 -66 -198 -132 -46 -50 -61 -75 -83 -143
l-28 -82 -5 -480 -6 -480 -125 -6 c-158 -8 -230 -33 -311 -106 -169 -153 -110
-440 106 -523 47 -18 85 -24 175 -27 63 -2 125 -6 138 -9 l22 -4 0 -988 c0
-554 4 -1046 10 -1122 21 -284 53 -418 134 -553 47 -79 158 -189 231 -231 79
-44 240 -93 365 -112 148 -21 546 -15 684 11 175 32 333 95 419 166 188 155
157 450 -58 550 -54 25 -171 25 -305 -2 -136 -27 -305 -29 -377 -5 -84 28
-138 106 -164 234 -9 40 -13 357 -16 1058 l-4 1002 213 4 c190 5 222 8 295 30
142 43 209 105 233 217 25 117 -11 245 -87 312 -21 17 -67 46 -103 63 l-65 31
-240 5 -240 5 -6 475 c-7 511 -8 519 -62 627 -51 99 -141 175 -254 214 -74 25
-217 26 -288 1z"/>
<path d="M10510 13013 c-394 -40 -703 -144 -939 -315 -121 -88 -247 -231 -306
-347 -59 -117 -79 -202 -80 -326 0 -101 2 -115 28 -167 33 -67 96 -126 176
-165 49 -24 70 -28 168 -32 124 -4 194 12 230 52 11 12 71 96 133 187 61 91
139 193 173 228 174 177 366 243 712 242 262 0 425 -43 520 -136 43 -43 103
-156 128 -244 20 -70 47 -233 47 -286 l0 -41 -123 -36 c-277 -82 -712 -182
-1377 -317 -191 -39 -289 -69 -405 -125 -354 -171 -557 -463 -581 -838 -23
-353 152 -710 441 -902 137 -90 253 -141 405 -177 110 -25 452 -36 597 -19
346 42 678 185 1025 443 74 55 83 59 93 43 27 -46 155 -219 217 -293 126 -150
219 -202 358 -202 182 0 354 108 411 258 35 95 29 133 -99 623 -49 185 -54
283 -50 1039 3 641 1 715 -15 815 -52 318 -137 513 -293 675 -198 204 -489
317 -928 359 -100 10 -583 13 -666 4z m987 -2125 c-8 -308 -33 -434 -115 -592
-134 -255 -414 -423 -762 -456 -339 -32 -593 119 -665 397 -27 105 -10 243 40
329 46 79 175 178 300 231 28 12 226 60 440 108 398 88 546 125 670 169 39 13
76 25 84 25 12 1 13 -34 8 -211z"/>
<path d="M13280 12992 c-111 -37 -168 -82 -239 -188 -115 -173 -111 -247 35
-616 119 -302 745 -1883 949 -2398 l185 -465 -49 -125 c-136 -355 -233 -519
-346 -585 -92 -54 -257 -70 -425 -40 -122 21 -234 19 -315 -6 -55 -17 -78 -31
-125 -77 -48 -47 -61 -68 -75 -116 -23 -79 -16 -201 15 -273 25 -58 95 -130
158 -162 115 -59 330 -91 607 -91 368 0 586 52 789 189 254 172 391 406 683
1171 260 680 378 990 563 1475 109 286 280 734 380 995 100 261 188 493 196
516 12 37 100 360 111 410 8 34 -23 136 -62 207 -44 79 -87 120 -175 161 -61
29 -72 31 -185 31 -111 0 -124 -2 -177 -28 -101 -49 -153 -124 -245 -347 -44
-107 -667 -1884 -806 -2297 -17 -51 -34 -93 -38 -93 -4 0 -34 80 -67 178 -33
97 -109 321 -170 497 -61 176 -217 631 -347 1010 -157 458 -254 727 -290 801
-65 133 -130 210 -213 251 -50 24 -70 28 -162 30 -80 2 -118 -1 -160 -15z"/>
<path d="M2075 7560 c-268 -42 -481 -171 -567 -345 -51 -103 -63 -156 -62
-275 0 -154 31 -247 116 -348 116 -139 281 -217 659 -312 292 -74 366 -105
441 -188 82 -91 79 -248 -7 -350 -121 -143 -418 -193 -611 -103 -97 46 -144
101 -225 267 -44 90 -81 152 -100 168 -94 79 -243 46 -298 -66 -79 -164 76
-471 311 -614 164 -100 435 -150 683 -124 149 15 250 42 374 102 90 43 116 62
185 132 136 136 191 271 190 466 -1 215 -58 344 -205 461 -113 91 -284 160
-580 234 -284 71 -373 104 -444 167 -56 48 -78 100 -73 170 5 71 40 125 112
175 77 53 142 68 286 67 106 0 134 -4 184 -24 75 -29 138 -90 196 -190 116
-201 131 -214 240 -208 54 3 74 9 103 31 83 63 107 168 67 287 -29 88 -69 147
-146 220 -98 91 -208 147 -364 185 -78 19 -375 29 -465 15z"/>
<path d="M6408 7556 c-359 -64 -647 -296 -776 -627 -58 -151 -83 -275 -89
-459 -18 -511 196 -932 562 -1106 271 -129 676 -135 941 -14 273 124 474 398
474 647 0 119 -66 193 -179 201 -110 8 -154 -30 -216 -186 -85 -211 -205 -328
-385 -373 -67 -17 -238 -17 -300 0 -215 58 -349 206 -413 460 -30 119 -32 462
-4 586 54 233 167 393 332 471 82 40 150 54 251 54 226 0 373 -98 505 -336 78
-143 130 -181 235 -172 61 5 115 41 149 99 28 48 26 163 -4 242 -88 227 -326
420 -611 494 -118 31 -350 40 -472 19z"/>
<path d="M8064 7551 c-51 -23 -99 -81 -113 -137 -7 -29 -11 -261 -11 -705 0
-718 3 -775 57 -938 58 -178 177 -321 333 -398 219 -109 625 -142 895 -73 253
65 448 238 524 467 52 156 55 207 56 933 0 524 -3 685 -13 718 -27 90 -112
151 -210 152 -90 0 -154 -37 -195 -115 -22 -40 -22 -49 -28 -730 -6 -689 -8
-722 -44 -830 -66 -199 -239 -291 -505 -270 -185 14 -320 99 -371 232 -43 114
-43 107 -49 833 -6 764 -5 746 -68 814 -60 64 -174 85 -258 47z"/>
<path d="M3694 7512 c-56 -23 -78 -41 -102 -82 -41 -70 -43 -125 -40 -1055 l3
-890 30 -60 c34 -69 72 -98 146 -114 70 -15 1359 -15 1414 0 163 45 165 286 2
334 -42 13 -138 15 -599 15 l-548 0 2 318 3 317 515 5 c574 6 556 3 600 75 16
26 22 51 21 91 0 74 -24 113 -86 144 l-50 25 -502 3 -503 3 0 274 0 274 558 3
c536 3 558 4 591 23 54 32 75 67 79 138 3 52 0 67 -20 97 -13 19 -43 45 -68
58 l-44 22 -681 -1 c-616 0 -684 -2 -721 -17z"/>
<path d="M10433 7514 c-52 -19 -108 -79 -125 -136 -19 -61 -19 -1893 -1 -1954
32 -104 105 -158 213 -158 86 0 147 33 187 102 l28 47 5 419 5 420 125 -2
c162 -3 215 -15 288 -62 95 -61 157 -145 367 -495 172 -287 204 -334 256 -378
112 -96 301 -57 353 74 15 37 15 46 1 103 -8 33 -38 108 -66 166 -126 261
-320 515 -467 610 -60 39 -64 34 53 70 156 48 297 145 364 249 93 145 114 364
51 547 -46 133 -155 255 -284 318 -145 71 -130 69 -751 72 -480 3 -566 1 -602
-12z m879 -323 c137 -13 191 -33 255 -96 65 -66 88 -134 80 -236 -13 -156
-112 -239 -322 -269 -38 -5 -186 -10 -327 -10 l-258 0 0 303 c0 167 3 307 7
310 9 10 450 8 565 -2z"/>
<path d="M12673 7514 c-52 -19 -108 -79 -125 -136 -19 -63 -19 -1840 0 -1913
18 -66 55 -113 111 -139 45 -21 56 -21 734 -24 461 -2 700 1 727 8 129 35 175
196 82 293 -53 55 -74 57 -674 57 l-549 0 3 318 3 317 500 2 c566 3 565 3 612
74 19 29 26 53 26 92 1 95 -48 151 -150 167 -32 6 -266 10 -519 10 -374 0
-463 3 -467 13 -3 8 -4 130 -4 273 l2 259 555 5 c537 5 556 6 590 26 55 32 80
77 80 144 0 63 -22 106 -73 144 -28 21 -35 21 -725 23 -597 1 -703 0 -739 -13z"/>
<path d="M1970 5151 c0 -47 124 -344 224 -536 572 -1097 2210 -3092 3246
-3953 96 -80 231 -196 300 -257 294 -261 380 -325 496 -366 199 -71 459 -13
979 216 714 315 1783 956 2750 1650 1057 757 1946 1519 2566 2195 204 223 426
507 556 711 73 114 173 299 173 321 0 14 -28 17 -187 23 -513 21 -858 -39
-1153 -198 -99 -53 -297 -189 -423 -290 -105 -84 -562 -462 -585 -484 -31 -30
-472 -380 -627 -499 -1098 -840 -2657 -1797 -3525 -2166 l-144 -61 -56 29
c-543 284 -1479 1308 -2562 2804 -169 234 -359 508 -499 721 l-90 136 -517 6
c-695 9 -922 9 -922 -2z"/>
</g>
</svg>
